<svg width="20" height="22" viewBox="0 0 20 22" fill="none" xmlns="http://www.w3.org/2000/svg">
<path d="M2.90194 22H17.098C17.5604 21.9995 18.0038 21.8156 18.3307 21.4886C18.6577 21.1616 18.8416 20.7183 18.8421 20.2559V10.2004C18.9596 10.089 19.0693 9.9697 19.1705 9.84328C19.7398 9.12854 19.9488 8.27978 19.7591 7.45336L18.1714 0.533758C18.1366 0.382083 18.0514 0.246701 17.9297 0.149746C17.808 0.0527903 17.657 -1.90493e-06 17.5013 0L2.49863 0C2.34302 -1.90493e-06 2.192 0.0527903 2.07028 0.149746C1.94856 0.246701 1.86333 0.382083 1.82853 0.533758L0.240795 7.45336C0.0511314 8.27978 0.260217 9.12854 0.829467 9.84328C0.930612 9.9697 1.04031 10.089 1.15779 10.2004V20.2559C1.15831 20.7183 1.34224 21.1616 1.66922 21.4886C1.9962 21.8156 2.43952 21.9995 2.90194 22ZM6.2593 7.94759C6.1769 8.50368 5.89758 9.01171 5.47218 9.37921C5.04677 9.74672 4.50356 9.94927 3.94139 9.95002C3.18239 9.95002 2.3641 9.56287 1.90506 8.98661C1.71669 8.75029 1.51624 8.38836 1.5522 7.94759H6.2593ZM18.4478 7.94759C18.4838 8.38836 18.2833 8.75007 18.095 8.98661C17.6359 9.56287 16.8176 9.95002 16.0586 9.95002C15.4965 9.94929 14.9533 9.74675 14.5278 9.37926C14.1024 9.01177 13.8231 8.50376 13.7407 7.94767L18.4478 7.94759ZM7.65703 6.57259V1.375H12.3429V6.57259H7.65703ZM12.3179 7.94759C12.2362 8.50397 11.9571 9.01239 11.5315 9.38C11.1059 9.74762 10.5623 9.94989 9.99999 9.94989C9.43763 9.94989 8.89404 9.74762 8.46847 9.38C8.04291 9.01239 7.76377 8.50397 7.68204 7.94759H12.3179ZM17.4671 20.2559C17.467 20.3538 17.4281 20.4476 17.3589 20.5168C17.2897 20.586 17.1959 20.6249 17.098 20.625H2.90194C2.80408 20.6249 2.71026 20.586 2.64107 20.5168C2.57187 20.4476 2.53295 20.3538 2.53283 20.2559V11.0577C2.98234 11.2312 3.45956 11.3217 3.94135 11.325C4.5345 11.3249 5.11902 11.1828 5.64603 10.9106C6.17304 10.6384 6.62723 10.244 6.97065 9.7604C7.31399 10.2441 7.76817 10.6386 8.2952 10.9108C8.82222 11.183 9.40677 11.325 9.99994 11.325C10.5931 11.325 11.1777 11.183 11.7047 10.9108C12.2317 10.6386 12.6859 10.2441 13.0292 9.7604C13.3727 10.244 13.8269 10.6384 14.3539 10.9106C14.8809 11.1828 15.4654 11.3249 16.0586 11.325C16.5404 11.3217 17.0176 11.2312 17.4671 11.0577L17.4671 20.2559ZM18.1463 6.57259H13.7179V1.375H16.9537L18.1463 6.57259ZM3.04623 1.375H6.28203V6.57259H1.85363L3.04623 1.375ZM9.99999 11.4641C9.11168 11.4641 8.24332 11.7275 7.50471 12.221C6.76611 12.7145 6.19044 13.4159 5.85051 14.2366C5.51057 15.0573 5.42163 15.9604 5.59495 16.8316C5.76826 17.7029 6.19603 18.5032 6.82417 19.1313C7.45231 19.7594 8.2526 20.1871 9.12385 20.3604C9.99509 20.5337 10.8982 20.4447 11.7188 20.1047C12.5395 19.7648 13.2409 19.1891 13.7344 18.4505C14.2279 17.7118 14.4913 16.8435 14.4913 15.9552C14.4899 14.7644 14.0162 13.6229 13.1742 12.781C12.3323 11.939 11.1907 11.4654 9.99999 11.4641ZM9.99999 12.8391C10.4824 12.8388 10.9584 12.9506 11.3902 13.1657C11.8221 13.3807 12.1981 13.6932 12.4886 14.0784C12.779 14.4637 12.976 14.9111 13.064 15.3855C13.152 15.8599 13.1286 16.3482 12.9956 16.812C12.7088 16.425 12.3039 16.1418 11.842 16.0053L11.772 15.9838C11.8959 15.6908 11.9453 15.3718 11.9158 15.055C11.8864 14.7383 11.779 14.4338 11.6032 14.1687C11.4275 13.9036 11.1888 13.6861 10.9086 13.5356C10.6283 13.3852 10.3152 13.3064 9.99709 13.3064C9.679 13.3064 9.36586 13.3852 9.08561 13.5356C8.80536 13.6861 8.56671 13.9036 8.39095 14.1687C8.21519 14.4338 8.1078 14.7383 8.07835 15.055C8.04889 15.3718 8.0983 15.6908 8.22215 15.9838L8.15224 16.0053C7.69265 16.1411 7.28938 16.4221 7.00274 16.8062C6.87078 16.3427 6.84819 15.8548 6.93677 15.3811C7.02535 14.9073 7.22266 14.4606 7.51319 14.076C7.80373 13.6915 8.17954 13.3796 8.61106 13.165C9.04258 12.9503 9.51803 12.8388 9.99999 12.8391ZM9.44505 15.2338C9.44505 15.1246 9.47742 15.0179 9.53807 14.9271C9.59873 14.8363 9.68494 14.7655 9.78581 14.7238C9.88667 14.682 9.99766 14.671 10.1047 14.6923C10.2118 14.7136 10.3102 14.7662 10.3874 14.8434C10.4646 14.9206 10.5172 15.019 10.5385 15.126C10.5598 15.2331 10.5489 15.3441 10.5071 15.445C10.4653 15.5458 10.3946 15.6321 10.3038 15.6927C10.213 15.7534 10.1063 15.7858 9.99711 15.7858C9.85072 15.7856 9.71037 15.7274 9.60687 15.6239C9.50337 15.5203 9.44517 15.38 9.44505 15.2336V15.2338ZM7.92945 18.2815L7.9472 18.0706C7.95803 17.8982 8.02215 17.7334 8.13068 17.599C8.23921 17.4647 8.38681 17.3673 8.55306 17.3205L9.3955 17.0639C9.78634 17.1928 10.2083 17.1928 10.5991 17.0639L11.4416 17.3205C11.6078 17.3674 11.7553 17.4647 11.8638 17.5991C11.9723 17.7335 12.0364 17.8982 12.0472 18.0706C12.0538 18.1494 12.0598 18.2207 12.0653 18.2862C11.4954 18.7929 10.7592 19.0724 9.99659 19.0715C9.23403 19.0706 8.4984 18.7895 7.92967 18.2815H7.92945Z" fill="#6C7686"/>
</svg>
