<svg width="22" height="22" viewBox="0 0 22 22" fill="none" xmlns="http://www.w3.org/2000/svg">
<g clip-path="url(#clip0_1234_258)">
<path d="M17.609 11.8141C15.0743 11.8141 14.4703 11.7137 13.388 12.2047C12.905 12.1447 12.9702 12.1593 9.25813 12.1593C9.03379 12.1593 8.81242 12.1723 8.59452 12.1969C7.51953 11.7148 6.91737 11.8141 4.39102 11.8141C1.96982 11.8141 0 13.784 0 16.2052V16.4916C0 17.9846 1.21464 19.1993 2.70763 19.1993H3.43527C3.77489 20.7941 5.19398 21.9942 6.88862 21.9942H15.0255C16.7201 21.9942 18.1392 20.7941 18.4788 19.1993H19.2924C20.7854 19.1993 22 17.9846 22 16.4916V16.2052C22 13.784 20.0302 11.8141 17.609 11.8141ZM3.36265 17.8243H2.70763C1.97282 17.8243 1.375 17.2264 1.375 16.4916V16.2052C1.375 14.5421 2.72796 13.1891 4.39098 13.1891H5.93145C4.43919 14.2115 3.43857 15.901 3.36265 17.8243ZM17.1815 18.4632C17.1815 19.652 16.2143 20.6192 15.0254 20.6192H6.88858C5.69972 20.6192 4.73249 19.652 4.73249 18.4632V18.0599C4.73249 15.5645 6.76268 13.5343 9.25809 13.5343H12.6559C15.1513 13.5343 17.1815 15.5645 17.1815 18.0599V18.4632H17.1815ZM20.625 16.4916C20.625 17.2264 20.0272 17.8243 19.2924 17.8243H18.5514C18.4754 15.901 17.4749 14.2115 15.9826 13.1891H17.609C19.272 13.1891 20.625 14.5421 20.625 16.2052V16.4916Z" fill="#6C7686"/>
<path d="M5.60711 10.7738C6.59307 10.7738 7.39091 10.4361 7.96386 9.78663C8.71164 10.5691 9.72773 10.9753 10.97 10.9753C12.2351 10.9753 13.2656 10.5537 14.0171 9.74271C14.5924 10.4207 15.4034 10.7739 16.4112 10.7739C17.8311 10.7739 18.8614 10.0742 19.3907 8.75044C19.7843 7.76602 19.8374 6.61816 19.8374 5.6251C19.8374 3.82544 18.6514 2.58266 16.4112 2.58266C16.0226 2.58266 15.6627 2.61978 15.3324 2.693C14.8261 0.987745 13.2742 0.0057373 10.97 0.0057373C8.67228 0.0057373 7.12279 0.982245 6.61193 2.67861C6.30191 2.61557 5.96727 2.58266 5.60715 2.58266C3.3671 2.58266 2.18091 3.82519 2.18091 5.6251C2.18091 6.61811 2.23397 7.76602 2.62761 8.75048C3.15694 10.0742 4.18721 10.7738 5.60711 10.7738ZM18.4624 5.62506C18.4624 6.48719 18.421 7.47207 18.114 8.23988C17.7935 9.04138 17.2683 9.39884 16.4112 9.39884C15.6499 9.39884 15.1506 9.11657 14.8239 8.49189C15.4171 7.15234 15.5103 5.52855 15.5124 4.06182C15.7567 3.99624 16.0523 3.95762 16.4112 3.95762C16.9185 3.95762 18.4624 3.95762 18.4624 5.62506ZM8.65922 1.99841C9.75342 1.16929 12.1865 1.16937 13.2806 1.99841C13.8572 2.43536 14.1375 3.09274 14.1375 4.00806C14.1375 6.81212 13.7711 9.60027 10.9699 9.60027C8.16663 9.60027 7.80234 6.80722 7.80234 4.00806C7.80238 3.09274 8.08262 2.43536 8.65922 1.99841ZM5.60711 3.95762C5.78788 3.95762 6.10026 3.95822 6.42742 4.03367C6.42841 5.53023 6.52123 7.20627 7.15162 8.57018C6.82454 9.14025 6.33586 9.39884 5.60711 9.39884C4.74997 9.39884 4.2248 9.04142 3.9043 8.23988C3.59724 7.47203 3.55587 6.48719 3.55587 5.62506C3.55587 5.21265 3.55587 3.95762 5.60711 3.95762Z" fill="#6C7686"/>
</g>
<defs>
<clipPath id="clip0_1234_258">
<rect width="22" height="22" fill="white"/>
</clipPath>
</defs>
</svg>
