<svg width="22" height="22" viewBox="0 0 22 22" fill="none" xmlns="http://www.w3.org/2000/svg">
<path d="M17.9557 20.3149H3.72046V21.9326H17.9557V20.3149Z" fill="#6C7686"/>
<path d="M13.3996 7.29297H8.41187C7.96513 7.29297 7.60303 7.65507 7.60303 8.10181C7.60303 8.54856 7.96513 8.91066 8.41187 8.91066H13.3996C13.8463 8.91066 14.2084 8.54856 14.2084 8.10181C14.2084 7.65507 13.8463 7.29297 13.3996 7.29297Z" fill="#6C7686"/>
<path d="M17.1741 11.0674H8.41187C7.96513 11.0674 7.60303 11.4295 7.60303 11.8762C7.60303 12.323 7.96513 12.6851 8.41187 12.6851H17.1741C17.6209 12.6851 17.9829 12.323 17.9829 11.8762C17.9829 11.4295 17.6208 11.0674 17.1741 11.0674Z" fill="#6C7686"/>
<path d="M21.5233 0.165889C21.233 0.0353926 20.8936 0.0869121 20.6552 0.297459L18.3902 2.30118L16.1226 0.273439C15.8155 -0.00130275 15.3512 -0.00130275 15.0441 0.273439L12.7794 2.29873L10.5145 0.273439C10.2074 -0.00130275 9.74338 -0.00130275 9.43628 0.273439L7.16861 2.30118L4.90364 0.297459C4.66559 0.0871699 4.32588 0.0356504 4.0355 0.165889C3.74541 0.296643 3.55884 0.585135 3.55884 0.903275V15.3003H0.808844C0.362098 15.3003 0 15.6624 0 16.1091V18.0773C0 20.2031 1.72954 21.9327 3.85537 21.9327V20.315C2.62139 20.315 1.61764 19.311 1.61764 18.0773V16.918H14.2892V18.0773C14.2892 20.2031 16.0187 21.9327 18.1446 21.9327C20.2704 21.9327 22 20.2032 22 18.0773V0.903232C22 0.585092 21.8134 0.296643 21.5233 0.165889ZM20.3824 18.0773C20.3824 19.311 19.3783 20.315 18.1446 20.315C16.9109 20.315 15.9069 19.311 15.9069 18.0773V16.1091C15.9069 15.6624 15.5448 15.3003 15.0981 15.3003H5.17649V2.69855L6.63588 3.98972C6.94323 4.2615 7.40532 4.26012 7.71079 3.98676L9.9755 1.96147L12.2402 3.9865C12.5473 4.26124 13.0115 4.26124 13.3186 3.9865L15.5836 1.96121L17.8483 3.9865C18.154 4.25987 18.6162 4.26094 18.9232 3.98946L20.3824 2.6986V18.0773V18.0773Z" fill="#6C7686"/>
</svg>
