<svg width="22" height="22" viewBox="0 0 22 22" fill="none" xmlns="http://www.w3.org/2000/svg">
<path d="M21.0995 4.97156H16.3494C15.8521 4.97156 15.449 5.3889 15.449 5.90371V21.0678C15.449 21.5826 15.8521 22 16.3494 22H21.0995C21.5967 22 21.9999 21.5826 21.9999 21.0678V5.90371C21.9999 5.3889 21.5967 4.97156 21.0995 4.97156ZM20.199 20.1357H17.2498V6.83587H20.199V20.1357Z" fill="#6C7686"/>
<path d="M13.3751 0H8.62503C8.12774 0 7.72461 0.417343 7.72461 0.932157V21.0678C7.72461 21.5827 8.12769 22 8.62503 22H13.3751C13.8724 22 14.2755 21.5827 14.2755 21.0678V0.932209C14.2755 0.417395 13.8724 0 13.3751 0ZM12.4747 20.1357H9.52545V1.86437H12.4747V20.1357Z" fill="#6C7686"/>
<path d="M5.65049 7.45728H0.900421C0.403135 7.45728 0 7.87462 0 8.38943V21.0678C0 21.5826 0.403135 21.9999 0.900421 21.9999H5.65049C6.14778 21.9999 6.55091 21.5826 6.55091 21.0678V8.38943C6.55091 7.87462 6.14778 7.45728 5.65049 7.45728ZM4.75007 20.1356H1.80084V9.32159H4.75007V20.1356Z" fill="#6C7686"/>
</svg>
