<svg width="22" height="22" viewBox="0 0 22 22" fill="none" xmlns="http://www.w3.org/2000/svg">
<path d="M11.0001 12.8333V14.6666C9.54139 14.6666 8.14245 15.2461 7.11099 16.2776C6.07954 17.309 5.50008 18.7079 5.50008 20.1666H3.66675C3.66675 18.2217 4.43936 16.3564 5.81464 14.9811C7.1899 13.606 9.05516 12.8333 11.0001 12.8333ZM11.0001 11.9166C7.96133 11.9166 5.50008 9.45538 5.50008 6.41663C5.50008 3.37788 7.96133 0.916626 11.0001 0.916626C14.0388 0.916626 16.5001 3.37788 16.5001 6.41663C16.5001 9.45538 14.0388 11.9166 11.0001 11.9166ZM11.0001 10.0833C13.0259 10.0833 14.6667 8.44246 14.6667 6.41663C14.6667 4.39079 13.0259 2.74996 11.0001 2.74996C8.97425 2.74996 7.33341 4.39079 7.33341 6.41663C7.33341 8.44246 8.97425 10.0833 11.0001 10.0833ZM19.2501 15.5833H20.1667V20.1666H12.8334V15.5833H13.7501V14.6666C13.7501 13.9373 14.0398 13.2378 14.5556 12.7221C15.0713 12.2064 15.7708 11.9166 16.5001 11.9166C17.2294 11.9166 17.9289 12.2064 18.4446 12.7221C18.9603 13.2378 19.2501 13.9373 19.2501 14.6666V15.5833ZM17.4167 15.5833V14.6666C17.4167 14.4235 17.3201 14.1903 17.1483 14.0185C16.9764 13.8466 16.7432 13.75 16.5001 13.75C16.257 13.75 16.0238 13.8466 15.8519 14.0185C15.68 14.1903 15.5834 14.4235 15.5834 14.6666V15.5833H17.4167Z" fill="#6C7686"/>
</svg>
