<svg width="22" height="22" viewBox="0 0 22 22" fill="none" xmlns="http://www.w3.org/2000/svg">
<path d="M20.1667 10.0833H12.8334C12.5903 10.0833 12.3571 9.98672 12.1852 9.81481C12.0133 9.6429 11.9167 9.40974 11.9167 9.16663V1.83329C11.9167 1.59018 12.0133 1.35702 12.1852 1.18511C12.3571 1.0132 12.5903 0.916626 12.8334 0.916626H20.1667C20.4099 0.916626 20.643 1.0132 20.8149 1.18511C20.9868 1.35702 21.0834 1.59018 21.0834 1.83329V9.16663C21.0834 9.40974 20.9868 9.6429 20.8149 9.81481C20.643 9.98672 20.4099 10.0833 20.1667 10.0833ZM13.7501 8.24996H19.2501V2.74996H13.7501V8.24996Z" fill="#6C7686"/>
<path d="M16.5001 21.0833C15.5936 21.0833 14.7074 20.8145 13.9537 20.3109C13.2 19.8072 12.6125 19.0914 12.2656 18.2539C11.9187 17.4164 11.828 16.4949 12.0048 15.6058C12.1817 14.7167 12.6182 13.9 13.2592 13.2591C13.9002 12.6181 14.7168 12.1815 15.6059 12.0047C16.495 11.8278 17.4166 11.9186 18.2541 12.2655C19.0915 12.6124 19.8074 13.1999 20.311 13.9536C20.8146 14.7073 21.0834 15.5935 21.0834 16.5C21.082 17.7151 20.5986 18.88 19.7394 19.7393C18.8802 20.5985 17.7152 21.0818 16.5001 21.0833ZM16.5001 13.75C15.9562 13.75 15.4245 13.9112 14.9723 14.2134C14.52 14.5156 14.1676 14.9451 13.9594 15.4476C13.7513 15.9501 13.6968 16.503 13.8029 17.0365C13.909 17.5699 14.1709 18.0599 14.5555 18.4445C14.9401 18.8291 15.4301 19.091 15.9636 19.1971C16.497 19.3032 17.05 19.2488 17.5525 19.0406C18.055 18.8325 18.4845 18.48 18.7866 18.0278C19.0888 17.5755 19.2501 17.0439 19.2501 16.5C19.2501 15.7706 18.9604 15.0711 18.4446 14.5554C17.9289 14.0397 17.2294 13.75 16.5001 13.75Z" fill="#6C7686"/>
<path d="M9.16675 11.9166H1.83341C1.5903 11.9166 1.35714 12.0132 1.18523 12.1851C1.01333 12.357 0.916748 12.5902 0.916748 12.8333V20.1666C0.916748 20.4097 1.01333 20.6429 1.18523 20.8148C1.35714 20.9867 1.5903 21.0833 1.83341 21.0833H9.16675C9.40986 21.0833 9.64302 20.9867 9.81493 20.8148C9.98684 20.6429 10.0834 20.4097 10.0834 20.1666V12.8333C10.0834 12.5902 9.98684 12.357 9.81493 12.1851C9.64302 12.0132 9.40986 11.9166 9.16675 11.9166ZM8.25008 19.25H2.75008V13.75H8.25008V19.25Z" fill="#6C7686"/>
<path d="M9.16675 10.0833H1.83341C1.5903 10.0833 1.35714 9.98672 1.18523 9.81481C1.01333 9.6429 0.916748 9.40974 0.916748 9.16663V1.83329C0.916748 1.59018 1.01333 1.35702 1.18523 1.18511C1.35714 1.0132 1.5903 0.916626 1.83341 0.916626H9.16675C9.40986 0.916626 9.64302 1.0132 9.81493 1.18511C9.98684 1.35702 10.0834 1.59018 10.0834 1.83329V9.16663C10.0834 9.40974 9.98684 9.6429 9.81493 9.81481C9.64302 9.98672 9.40986 10.0833 9.16675 10.0833ZM2.75008 8.24996H8.25008V2.74996H2.75008V8.24996Z" fill="#6C7686"/>
</svg>
