<svg width="11" height="9" viewBox="0 0 11 9" fill="none" xmlns="http://www.w3.org/2000/svg">
<path d="M1.09495 5.24489C1.13545 5.25147 1.17645 5.2545 1.21747 5.25397H8.20172L8.04943 5.3248C7.90056 5.39526 7.76514 5.49115 7.64921 5.60814L5.69065 7.5667C5.43271 7.81293 5.38937 8.20905 5.58795 8.50525C5.81906 8.82088 6.26228 8.88941 6.57794 8.65829C6.60344 8.63961 6.62768 8.61925 6.65045 8.59733L10.1922 5.05563C10.4689 4.77916 10.4692 4.33067 10.1927 4.05389C10.1925 4.05371 10.1923 4.05351 10.1922 4.05333L6.65045 0.511633C6.37345 0.235403 5.92496 0.236023 5.64871 0.513028C5.62697 0.534831 5.60667 0.558029 5.58795 0.582467C5.38937 0.878664 5.43271 1.27478 5.69065 1.52102L7.64567 3.48312C7.7496 3.58716 7.86909 3.67439 7.99984 3.74166L8.21234 3.83729H1.25645C0.894596 3.82385 0.577127 4.07662 0.509149 4.43229C0.446527 4.81845 0.70879 5.18225 1.09495 5.24489Z" fill="#4472C4"/>
</svg>
