<svg width="22" height="22" viewBox="0 0 22 22" fill="none" xmlns="http://www.w3.org/2000/svg">
<path fill-rule="evenodd" clip-rule="evenodd" d="M15.8149 15.2703C15.4815 15.6513 14.9023 15.69 14.5214 15.3566C14.1404 15.0232 14.1017 14.444 14.4351 14.0631L16.3132 11.9167H7.33333C6.82708 11.9167 6.41667 11.5063 6.41667 11C6.41667 10.4938 6.82708 10.0834 7.33333 10.0834H16.3132L14.4351 7.93701C14.1017 7.55601 14.1404 6.97689 14.5214 6.64351C14.9023 6.31014 15.4815 6.34875 15.8149 6.72975L19.0232 10.3964C19.3256 10.742 19.3256 11.2581 19.0232 11.6037L15.8149 15.2703ZM7.33333 3.66671C7.8396 3.66671 8.25 3.25631 8.25 2.75004C8.25 2.24378 7.8396 1.83337 7.33333 1.83337H4.58333C3.57081 1.83337 2.75 2.65418 2.75 3.66671V18.3334C2.75 19.3459 3.57081 20.1667 4.58333 20.1667H7.33333C7.8396 20.1667 8.25 19.7563 8.25 19.25C8.25 18.7438 7.8396 18.3334 7.33333 18.3334H4.58333V3.66671H7.33333Z" fill="#6C7686"/>
</svg>
