<svg width="22" height="24" viewBox="0 0 22 24" fill="none" xmlns="http://www.w3.org/2000/svg">
<path d="M14.6182 11.1284C16.1538 10.0084 17.1539 8.19581 17.1539 6.15384C17.1539 2.76061 14.3933 0 11 0C7.60679 0 4.84618 2.76061 4.84618 6.15384C4.84618 8.19581 5.84616 10.0084 7.38188 11.1284C3.56438 12.5892 0.846191 16.2905 0.846191 20.6154C0.846191 22.4817 2.36452 24 4.2308 24H17.7692C19.6355 24 21.1538 22.4817 21.1538 20.6154C21.1538 16.2905 18.4357 12.5892 14.6182 11.1284ZM6.69235 6.15384C6.69235 3.77859 8.62477 1.84617 11 1.84617C13.3753 1.84617 15.3077 3.77859 15.3077 6.15384C15.3077 8.52909 13.3753 10.4616 11 10.4616C8.62477 10.4616 6.69235 8.52909 6.69235 6.15384ZM17.7692 22.1538H4.2308C3.3825 22.1538 2.69236 21.4637 2.69236 20.6153C2.69236 16.0344 6.41911 12.3076 11.0001 12.3076C15.581 12.3076 19.3078 16.0344 19.3078 20.6153C19.3077 21.4637 18.6176 22.1538 17.7692 22.1538Z" fill="#4472C4"/>
</svg>
